<?xml version="1.0" encoding="utf-8"?><svg viewBox="0 0 23.095 23.095" xmlns="http://www.w3.org/2000/svg" xmlns:xlink="http://www.w3.org/1999/xlink"><style>:root>svg{display:none}:root>svg:target{display:block}</style><svg viewBox="0 0 23.095 23.095" id="cart" xmlns="http://www.w3.org/2000/svg"><path d="M21.652 5.77H.481a.481.481 0 100 .962h21.171a.481.481 0 100-.962z"/><path d="M10.37.081a.48.48 0 00-.667.134L5.854 5.989a.481.481 0 00.134.667.48.48 0 00.667-.134l3.85-5.774a.481.481 0 00-.135-.667zM16.277 5.989L12.428.215a.481.481 0 00-.8.533l3.849 5.774a.481.481 0 00.4.215.471.471 0 00.266-.081.481.481 0 00.134-.667z"/><path d="M21.072 5.963a.481.481 0 00-.382-.189H1.444a.48.48 0 00-.464.607l2.5 9.167a2.41 2.41 0 002.32 1.774h5.344a.482.482 0 00.476-.413 6.225 6.225 0 017.6-5.193.479.479 0 00.574-.342l1.362-4.992a.482.482 0 00-.084-.419z"/><path d="M17.803 12.51a5.293 5.293 0 105.293 5.293 5.3 5.3 0 00-5.293-5.293z"/><g><path class="aline-1" d="M18.034 19.525a.5.5 0 01-.5-.5v-3.209a.5.5 0 01.5-.5.5.5 0 01.5.5v3.21a.5.5 0 01-.5.499z" fill="currentColor"/><path class="aline-2" d="M15.929 17.421a.5.5 0 01.5-.5h3.209a.5.5 0 01.5.5.5.5 0 01-.5.5h-3.21a.5.5 0 01-.499-.5z" fill="currentColor"/></g></svg><svg viewBox="0 0 19.588 19.588" id="inst" xmlns="http://www.w3.org/2000/svg"><path d="M14.286 0H5.3A5.308 5.308 0 000 5.3v8.984a5.308 5.308 0 005.3 5.3h8.984a5.308 5.308 0 005.3-5.3V5.3A5.308 5.308 0 0014.286 0zm4.154 14.286a4.159 4.159 0 01-4.154 4.154H5.3a4.159 4.159 0 01-4.154-4.154V5.3A4.159 4.159 0 015.3 1.148h8.984A4.159 4.159 0 0118.44 5.3zm0 0" fill="#714ca8"/><path d="M9.794 4.434A5.356 5.356 0 1015.15 9.79a5.362 5.362 0 00-5.356-5.356zm0 9.564a4.208 4.208 0 114.208-4.208 4.212 4.212 0 01-4.208 4.211zm0 0M15.278 2.536a1.583 1.583 0 101.583 1.583 1.584 1.584 0 00-1.583-1.583zm0 2.017a.434.434 0 11.434-.434.435.435 0 01-.434.432zm0 0" fill="#714ca8"/></svg><svg viewBox="0 0 19.63 11.451" id="vk" xmlns="http://www.w3.org/2000/svg"><path d="M16.289 6.566c-.317-.4-.227-.579 0-.937 0 0 2.624-3.624 2.894-4.852.134-.447 0-.776-.649-.776H16.39a.921.921 0 00-.933.6 17.555 17.555 0 01-2.639 4.311c-.5.49-.73.647-1 .647-.134 0-.343-.157-.343-.6V.776c0-.537-.153-.776-.605-.776H7.493a.514.514 0 00-.546.483c0 .509.773.626.853 2.057v3.106c0 .681-.124.806-.4.806-.73 0-2.5-2.626-3.55-5.632C3.641.236 3.434 0 2.883 0H.736C.124 0 0 .283 0 .6c0 .558.73 3.331 3.393 7a8.4 8.4 0 006.548 3.857c1.367 0 1.534-.3 1.534-.819 0-2.39-.124-2.616.561-2.616.317 0 .864.157 2.14 1.363 1.458 1.431 1.7 2.071 2.514 2.071h2.146c.612 0 .922-.3.743-.895-.408-1.254-3.166-3.823-3.29-3.995z" fill="#714ca8"/></svg><svg viewBox="0 0 18.761 18.852" id="wup" xmlns="http://www.w3.org/2000/svg"><path d="M16.028 2.74a9.344 9.344 0 00-14.7 11.271L0 18.852l4.952-1.3a9.331 9.331 0 004.464 1.138 9.345 9.345 0 006.612-15.95zM9.42 17.112a7.755 7.755 0 01-3.955-1.082l-.283-.168-2.939.771.784-2.865-.185-.294a7.764 7.764 0 116.578 3.638zm4.259-5.812c-.233-.117-1.381-.681-1.595-.759s-.37-.117-.525.117-.6.759-.739.915-.272.175-.506.058a6.375 6.375 0 01-1.877-1.159 7.041 7.041 0 01-1.3-1.617c-.136-.234 0-.348.1-.476a6.6 6.6 0 00.583-.8.429.429 0 00-.02-.409c-.05-.118-.52-1.27-.715-1.734s-.382-.394-.525-.4-.292-.008-.447-.008a.857.857 0 00-.622.292 2.618 2.618 0 00-.817 1.947 4.541 4.541 0 00.953 2.415 10.4 10.4 0 003.987 3.524 13.36 13.36 0 001.331.492 3.2 3.2 0 001.47.093 2.4 2.4 0 001.576-1.11 1.95 1.95 0 00.136-1.11c-.059-.099-.215-.157-.448-.271zm0 0" fill="#714ca8" fill-rule="evenodd"/></svg></svg>