<svg xmlns="http://www.w3.org/2000/svg" width="23.095" height="23.095" viewBox="0 0 23.095 23.095"><g transform="translate(-764.441 -13.488)"><g transform="translate(764.441 13.488)"><g transform="translate(0 5.774)"><path d="M21.654,128H.483a.481.481,0,1,0,0,.962H21.654a.481.481,0,1,0,0-.962Z" transform="translate(-0.002 -128.004)"/></g><g transform="translate(5.774 0)"><path d="M132.6.087a.48.48,0,0,0-.667.134l-3.849,5.774a.481.481,0,0,0,.134.667.48.48,0,0,0,.667-.134L132.735.754A.481.481,0,0,0,132.6.087Z" transform="translate(-128.004 -0.006)"/>
</g><g transform="translate(11.547)">
<path d="M260.713,5.989,256.864.215a.481.481,0,0,0-.8.533l3.849,5.774a.481.481,0,0,0,.4.215.471.471,0,0,0,.266-.081A.481.481,0,0,0,260.713,5.989Z" transform="translate(-255.983 0)"/></g><g transform="translate(0.963 5.774)"><path d="M41.451,128.193a.481.481,0,0,0-.382-.189H21.823a.48.48,0,0,0-.464.607l2.5,9.167a2.41,2.41,0,0,0,2.32,1.774h5.344a.482.482,0,0,0,.476-.413,6.225,6.225,0,0,1,7.6-5.193.479.479,0,0,0,.574-.342l1.362-4.992A.482.482,0,0,0,41.451,128.193Z" transform="translate(-21.342 -128.004)"/></g><g transform="translate(12.51 12.51)"><path d="M282.629,277.337a5.293,5.293,0,1,0,5.293,5.293A5.3,5.3,0,0,0,282.629,277.337Z" transform="translate(-277.336 -277.337)"/></g></g><g transform="translate(780.87 29.304)"><path class="line-1" d="M0,3.709a.5.5,0,0,1-.5-.5V0A.5.5,0,0,1,0-.5.5.5,0,0,1,.5,0v3.21A.5.5,0,0,1,0,3.709Z" transform="translate(1.605)" fill="currentColor"/><path class="line-2" d="M0,3.709a.5.5,0,0,1-.5-.5V0A.5.5,0,0,1,0-.5.5.5,0,0,1,.5,0v3.21A.5.5,0,0,1,0,3.709Z" transform="translate(3.209 1.605) rotate(90)" fill="currentColor"/></g></g></svg>
