<svg xmlns="http://www.w3.org/2000/svg" width="19.588" height="19.588" viewBox="0 0 19.588 19.588"><path d="M14.286,0H5.3A5.308,5.308,0,0,0,0,5.3v8.984a5.308,5.308,0,0,0,5.3,5.3h8.984a5.308,5.308,0,0,0,5.3-5.3V5.3A5.308,5.308,0,0,0,14.286,0ZM18.44,14.286a4.159,4.159,0,0,1-4.154,4.154H5.3a4.159,4.159,0,0,1-4.154-4.154V5.3A4.159,4.159,0,0,1,5.3,1.148h8.984A4.159,4.159,0,0,1,18.44,5.3Zm0,0" fill="#714ca8"/><path d="M121.36,116a5.356,5.356,0,1,0,5.356,5.356A5.362,5.362,0,0,0,121.36,116Zm0,9.564a4.208,4.208,0,1,1,4.208-4.208A4.212,4.212,0,0,1,121.36,125.567Zm0,0" transform="translate(-111.566 -111.566)" fill="#714ca8"/><path d="M359.559,66.285a1.583,1.583,0,1,0,1.583,1.583A1.584,1.584,0,0,0,359.559,66.285Zm0,2.017a.434.434,0,1,1,.434-.434A.435.435,0,0,1,359.559,68.3Zm0,0" transform="translate(-344.281 -63.749)" fill="#714ca8"/></svg>