<svg xmlns="http://www.w3.org/2000/svg" width="42.262" height="36.885" viewBox="0 0 42.262 36.885"><g transform="translate(-254.697 -5996)"><path d="M10,0A10,10,0,0,1,20,10c0,5.523-6.959,14.315-10,14.315C6.977,24.315,0,15.523,0,10A10,10,0,0,1,10,0Z" transform="matrix(0.985, 0.174, -0.174, 0.985, 277.263, 5997.448)" fill="#f1eefd"/><path d="M10,0A10,10,0,0,1,20,10c0,5.523-6.959,14.315-10,14.315C6.977,24.315,0,15.523,0,10A10,10,0,0,1,10,0Z" transform="translate(254.697 6013.466) rotate(-37)" fill="#ded7fa"/><path d="M10,0A10,10,0,0,1,20,10c0,5.523-6.959,14.315-10,14.315C6.977,24.315,0,15.523,0,10A10,10,0,0,1,10,0Z" transform="translate(265 5996)" fill="#fff"/></g></svg>