<svg xmlns="http://www.w3.org/2000/svg" width="19.63" height="11.451" viewBox="0 0 19.63 11.451"><path d="M16.289,11.566c-.317-.4-.227-.579,0-.937,0,0,2.624-3.624,2.894-4.852h0c.134-.447,0-.776-.649-.776H16.39a.921.921,0,0,0-.933.6,17.555,17.555,0,0,1-2.639,4.311c-.5.49-.73.647-1,.647-.134,0-.343-.157-.343-.6V5.776c0-.537-.153-.776-.605-.776H7.493a.514.514,0,0,0-.546.483c0,.509.773.626.853,2.057v3.106c0,.681-.124.806-.4.806-.73,0-2.5-2.626-3.55-5.632C3.641,5.236,3.434,5,2.883,5H.736C.124,5,0,5.283,0,5.6c0,.558.73,3.331,3.393,7a8.4,8.4,0,0,0,6.548,3.857c1.367,0,1.534-.3,1.534-.819,0-2.39-.124-2.616.561-2.616.317,0,.864.157,2.14,1.363,1.458,1.431,1.7,2.071,2.514,2.071h2.146c.612,0,.922-.3.743-.895C19.171,14.307,16.413,11.738,16.289,11.566Z" transform="translate(0 -5)" fill="#714ca8"/></svg>