<svg xmlns="http://www.w3.org/2000/svg" width="18.761" height="18.852" viewBox="0 0 18.761 18.852"><path d="M16.278,2.74a9.344,9.344,0,0,0-14.7,11.271L.25,18.852l4.952-1.3A9.331,9.331,0,0,0,9.666,18.69h0A9.345,9.345,0,0,0,16.278,2.74ZM9.67,17.112h0A7.755,7.755,0,0,1,5.715,16.03l-.283-.168-2.939.771.784-2.865-.185-.294A7.764,7.764,0,1,1,9.67,17.112ZM13.929,11.3c-.233-.117-1.381-.681-1.595-.759s-.37-.117-.525.117-.6.759-.739.915-.272.175-.506.058a6.375,6.375,0,0,1-1.877-1.159,7.041,7.041,0,0,1-1.3-1.617c-.136-.234,0-.348.1-.476a6.6,6.6,0,0,0,.583-.8.429.429,0,0,0-.02-.409C8,7.052,7.53,5.9,7.335,5.436s-.382-.394-.525-.4-.292-.008-.447-.008a.857.857,0,0,0-.622.292,2.618,2.618,0,0,0-.817,1.947,4.541,4.541,0,0,0,.953,2.415,10.4,10.4,0,0,0,3.987,3.524,13.36,13.36,0,0,0,1.331.492,3.2,3.2,0,0,0,1.47.093,2.4,2.4,0,0,0,1.576-1.11,1.95,1.95,0,0,0,.136-1.11C14.318,11.472,14.162,11.414,13.929,11.3Zm0,0" transform="translate(-0.25)" fill="#714ca8" fill-rule="evenodd"/></svg>